<svg version="1.1" id="Layer_1"
     xmlns="http://www.w3.org/2000/svg" x="0px" y="0px" viewBox="0 0 90.2 75"
     style="enable-background:new 0 0 90.2 75;" xml:space="preserve">
 <style type="text/css">
  .st0{fill:#FFFFFF;}
 </style>
    <metadata>
  <sfw xmlns="ns_sfw;">
   <slices>
   </slices>
      <sliceSourceBounds bottomLeftOrigin="true" height="75" width="90.2" x="-155.9" y="-275.5">
   </sliceSourceBounds>
  </sfw>
 </metadata>
    <g>
  <path class="st0" d="M33.3,42.8h9.5V18.9c0-1.3-0.5-2.5-1.4-3.4L27.3,1.4C26.4,0.5,25.2,0,23.9,0H0v9.5h26.1c3.9,0,7.1,3.2,7.1,7.1
		V42.8z">
  </path>
        <path class="st0" d="M56.9,42.8h-9.5V18.9c0-1.3,0.5-2.5,1.4-3.4L62.9,1.4C63.7,0.5,65,0,66.3,0h23.9v9.5H64
		c-3.9,0-7.1,3.2-7.1,7.1V42.8z">
  </path>
        <path class="st0" d="M0,61.6h2.2v2h0.1c0.6-1.4,2-2.3,3.4-2.3c0.7,0,1.1,0.1,1.6,0.2v2.2c-0.4-0.2-0.9-0.2-1.3-0.2
		c-2.2,0-3.6,2.1-3.6,5.3v6H0V61.6z">
  </path>
        <path class="st0" d="M73.7,69.6c0,2-1.3,3.5-3.6,3.5c-1.1,0-2.4-0.8-2.4-2.1c0-2.3,3.2-2.5,4.5-2.5c0.5,0,1,0.1,1.5,0.1V69.6z
		 M66.7,64.6c1-0.8,2.4-1.4,3.8-1.4c2.4,0,3.2,1.2,3.2,3.4c-0.9-0.1-1.6-0.1-2.6-0.1c-2.5,0-6.1,1-6.1,4.3c0,2.9,2,4.1,4.8,4.1
		c2.2,0,3.5-1.2,4-2H74v1.7h2.1v-8c0-3.6-1.5-5.4-5.2-5.4c-1.7,0-3.1,0.5-4.3,1.2L66.7,64.6z">
  </path>
        <path class="st0" d="M15.5,69.6c0,2-1.3,3.5-3.6,3.5c-1.1,0-2.4-0.8-2.4-2.1c0-2.3,3.2-2.5,4.5-2.5c0.5,0,1,0.1,1.5,0.1V69.6z
		 M8.5,64.6c1-0.8,2.4-1.4,3.8-1.4c2.4,0,3.2,1.2,3.2,3.4c-0.9-0.1-1.6-0.1-2.6-0.1c-2.5,0-6.1,1-6.1,4.3c0,2.9,2,4.1,4.8,4.1
		c2.2,0,3.5-1.2,4-2h0.1v1.7h2.1v-8c0-3.6-1.5-5.4-5.2-5.4c-1.7,0-3.1,0.5-4.3,1.2L8.5,64.6z">
  </path>
        <path class="st0" d="M19.8,61.6h2.3v2.1h0.1c0.7-1.5,2.5-2.4,4.3-2.4c3.4,0,4.9,2.1,4.9,5.6v7.8H29v-6.8c0-3.1-0.7-4.6-2.8-4.7
		c-2.8,0-4,2.2-4,5.4v6.1h-2.4V61.6z">
  </path>
        <path class="st0" d="M47.1,72.1c0.9,0.6,2.3,0.9,3,0.9c1.1,0,2.5-0.5,2.5-1.9c0-2.4-5.7-2.2-5.7-5.9c0-2.7,2-4,4.6-4
		c1.1,0,2.1,0.2,3,0.5l-0.2,2.1c-0.5-0.3-2-0.7-2.5-0.7c-1.2,0-2.3,0.5-2.3,1.6c0,2.7,5.7,1.9,5.7,6.1c0,2.8-2.2,4.1-4.6,4.1
		c-1.2,0-2.5-0.1-3.6-0.7L47.1,72.1z">
  </path>
        <path class="st0" d="M64.3,63.5h-3.5v7.2c0,1.5,0.9,2.3,2,2.3c0.7,0,1.3-0.2,1.6-0.5v2C64,74.8,63.2,75,62.5,75c-2.5,0-4-1.2-4-3.8
		v-7.7h-3v-1.9h3v-3l2.4-0.8v3.8h3.5V63.5z">
  </path>
        <path class="st0" d="M80.3,68.1c-0.1-2.4,1-4.9,3.6-4.9c2.6,0,3.9,2.5,3.9,5c0,2.2-1.1,4.9-3.8,4.9C81.3,73.1,80.3,70.1,80.3,68.1z
		 M87.9,74.7h2.3V55.4h-2.4v7.9h-0.1c-0.7-1.2-2.1-2.1-4.3-2.1c-3.8,0-5.6,3.1-5.6,6.6c0,3.6,1.7,7.1,5.6,7.1c2.3,0,3.8-1.2,4.5-2.1
		h0.1V74.7z">
  </path>
        <path class="st0" d="M35.6,68.1c-0.1-2.4,1-4.9,3.6-4.9c2.6,0,3.9,2.5,3.9,5c0,2.2-1.1,4.9-3.8,4.9C36.6,73.1,35.6,70.1,35.6,68.1z
		 M43.2,74.7h2.3V55.4h-2.4v7.9H43c-0.7-1.2-2.1-2.1-4.3-2.1c-3.8,0-5.6,3.1-5.6,6.6c0,3.6,1.7,7.1,5.6,7.1c2.3,0,3.8-1.2,4.5-2.1
		h0.1V74.7z">
  </path>
 </g>
</svg>