<svg xmlns="http://www.w3.org/2000/svg" viewBox="0 0 23.623 21.396" aria-hidden="true">
    <path d="M11.63 21.396a7.621 7.621 0 0 0 3.282-.712l6.777-3.047c1.055-.479 1.573-.87 1.573-1.7v-.742c0-.322-.342-.39-.528-.302l-7.275 3.3a9.272 9.272 0 0 1-3.818.82c-1.309 0-2.373-.175-3.819-.84l-7.285-3.3c-.185-.088-.537 0-.537.322v.742c0 .83.518 1.221 1.582 1.7l6.768 3.047c.918.41 1.923.712 3.28.712Zm.01-3.72a7.972 7.972 0 0 0 3.301-.703l6.895-3.135c.596-.273 1.426-.732 1.426-1.416 0-.684-.84-1.143-1.446-1.416L14.941 7.87a7.873 7.873 0 0 0-2.45-.654v5.43c0 .283-.333.546-.85.546-.508 0-.84-.263-.84-.546v-5.43c-.899.097-1.7.322-2.451.654l-7.305 3.34c-.703.312-1.016.752-1.016 1.21 0 .46.313.9.996 1.212l7.325 3.34a7.832 7.832 0 0 0 3.29.703Zm-7.09-4.287c-.859 0-1.552-.42-1.552-.957 0-.528.693-.948 1.553-.948s1.543.42 1.543.948c0 .537-.684.957-1.543.957Zm7.09-6.973a3.193 3.193 0 0 1-3.193-3.184C8.447 1.475 9.883.06 11.641.06a3.168 3.168 0 0 1 3.174 3.173 3.176 3.176 0 0 1-3.174 3.184Z"
          fill="currentColor"></path>
</svg>