<svg xmlns="http://www.w3.org/2000/svg" viewBox="0 0 114.778 120" aria-hidden="true">
    <path d="M70.783 104.997h22.192c6.223 0 9.346-3.101 9.346-9.553V73.615c0-6.442-3.123-9.502-9.346-9.502H70.783c-6.223 0-9.346 3.06-9.346 9.502v21.829c0 6.452 3.123 9.553 9.346 9.553zM21.807 104.997h22.192c6.223 0 9.346-3.101 9.346-9.553V73.615c0-6.442-3.123-9.502-9.346-9.502H21.807c-6.223 0-9.346 3.06-9.346 9.502v21.829c0 6.452 3.123 9.553 9.346 9.553zM70.783 56.021h22.192c6.223 0 9.346-3.111 9.346-9.553V24.639c0-6.453-3.123-9.554-9.346-9.554H70.783c-6.223 0-9.346 3.101-9.346 9.554v21.829c0 6.442 3.123 9.553 9.346 9.553zM21.807 56.021h22.192c6.223 0 9.346-3.111 9.346-9.553V24.639c0-6.453-3.123-9.554-9.346-9.554H21.807c-6.223 0-9.346 3.101-9.346 9.554v21.829c0 6.442 3.123 9.553 9.346 9.553z"/>
</svg>