<svg xmlns="http://www.w3.org/2000/svg" viewBox="0 0 20.982 23.341" aria-hidden="true">
    <path d="M1.16 22.027c1.523 1.533 3.496 1.553 5 .049 1.2-1.201 2.363-3.916 3.252-5.274l2.363 2.373c.723.733 1.602.733 2.285.03l.84-.84c.713-.723.703-1.543-.03-2.276L7.108 8.316c-.742-.733-1.572-.742-2.285-.03l-.84.84c-.703.704-.703 1.553.03 2.286l2.363 2.363c-1.348.889-4.053 2.05-5.264 3.252-1.494 1.504-1.484 3.486.049 5Zm2.607-1.27a1.21 1.21 0 0 1-1.21-1.21c0-.665.536-1.202 1.21-1.202a1.2 1.2 0 0 1 1.201 1.201c0 .664-.537 1.211-1.2 1.211Zm12.266-5.117 3.789-3.789c1.084-1.084 1.055-2.373-.049-3.496l-.498-.508c-1.016 1.318-3.916 2.862-4.473 2.305-.088-.088-.097-.264.03-.4 1.181-1.182 1.953-2.335 2.129-4.21L11.94.513c-.928-.928-2.539-.625-2.978 1.133-.616 2.5-1.172 3.955-1.778 5.156Z"
          fill="currentColor"/>
</svg>