<svg xmlns="http://www.w3.org/2000/svg" viewBox="0 0 24.132 22.534" aria-hidden="true">
    <path d="M20.108 11.233c.332.332.723.361 1.055.03l2.392-2.384c.303-.312.283-.722-.049-1.044l-.585-.577c-.293-.312-.499-.351-.82-.322l-.938.098-.606-.586.274-1.123c.146-.557-.069-1.133-.655-1.719l-1.943-1.924C16.26-.25 11.807-.134 10.02 1.858c-.361.4-.303.81-.068 1.074.175.205.498.322.761.195 1.417-.664 2.95-.888 4.239-.312l-.801 2.05c-.264.684-.127 1.163.312 1.602l1.778 1.778c.322.312.664.41 1.181.302l1.28-.254.595.606-.088.918c-.038.361 0 .557.313.86ZM.567 20.94l1.016 1.025c.82.82 1.836.752 2.666-.195L15.41 9.026a2.277 2.277 0 0 1-.156-.147l-1.563-1.562a1.339 1.339 0 0 0-.166-.166L.782 18.294c-.967.83-1.035 1.835-.215 2.646Z"
          fill="currentColor"/>
</svg>