<svg xmlns="http://www.w3.org/2000/svg" viewBox="0 0 21.826 21.396" aria-hidden="true">
    <path d="M12.227 21.396c.703 0 1.2-.605 1.562-1.543l6.397-16.708c.175-.45.273-.85.273-1.182 0-.635-.39-1.026-1.025-1.026-.332 0-.733.098-1.182.274L1.455 7.646C.635 7.96 0 8.457 0 9.17c0 .898.684 1.201 1.621 1.484l5.274 1.602c.625.195.976.176 1.396-.215l10.713-10.01c.127-.117.273-.097.371-.01.098.098.107.245-.01.372l-9.97 10.752c-.381.4-.41.732-.225 1.386l1.553 5.156c.293.987.595 1.71 1.504 1.71Z"
          fill="currentColor"/>
</svg>