<svg xmlns="http://www.w3.org/2000/svg" viewBox="0 0 20.904 20.654" aria-hidden="true">
    <path d="M8.118 20.508c1.026-.225 2.842-.86 3.74-1.553 1.3-1.006 1.924-2.11 1.827-3.896l-.03-.899c.83-.566 1.631-1.26 2.403-2.05 2.715-2.784 4.482-7.208 4.482-11.065C20.54.459 20.071 0 19.485 0c-3.847 0-8.271 1.768-11.054 4.473-.82.81-1.504 1.591-2.06 2.412l-.89-.03c-1.718-.078-2.86.46-3.896 1.817-.693.918-1.338 2.715-1.562 3.75-.147.713.449 1.035.976.898 1.152-.224 2.393-.722 3.399-.644v.634c-.02.45.039.733.38 1.085l1.368 1.357c.36.351.634.42 1.084.4l.625-.02c.107 1.036-.372 2.247-.635 3.4-.186.663.283 1.113.898.976ZM13.89 8.71a2.065 2.065 0 0 1-2.07-2.07c0-1.153.917-2.08 2.07-2.08a2.076 2.076 0 1 1 0 4.15ZM2.59 19.1l1.651-.048c.537-.01.967-.176 1.319-.528.44-.44.556-1.064.478-1.494-.058-.351-.41-.449-.566-.166-.069.098-.127.196-.244.303-.245.254-.43.313-.743.332l-.966.059a.265.265 0 0 1-.274-.264l.059-.977c.02-.322.088-.508.332-.732a1.53 1.53 0 0 1 .312-.244c.274-.127.176-.527-.166-.576a1.78 1.78 0 0 0-1.494.488c-.361.371-.527.781-.537 1.309l-.049 1.65c-.02.547.352.908.889.889Z"
          fill="currentColor"/>
</svg>