<svg xmlns="http://www.w3.org/2000/svg" viewBox="0 0 22.053 22.119" aria-hidden="true">
    <path d="M4.161 20.547c.4.312.908.205 1.514-.235l5.166-3.798 5.176 3.799c.605.439 1.103.546 1.513.234.4-.303.488-.8.244-1.514l-2.04-6.074 5.214-3.75c.606-.43.85-.879.694-1.367-.157-.469-.616-.694-1.368-.694h-6.396l-1.944-6.064C11.7.361 11.35 0 10.841 0c-.498 0-.85.361-1.084 1.084L7.813 7.148H1.417c-.752 0-1.211.225-1.367.694-.166.488.088.937.693 1.367l5.215 3.75-2.041 6.074c-.244.713-.156 1.211.244 1.514Z"
          fill="currentColor"/>
</svg>